<?xml version="1.0" standalone="no"?>
<!DOCTYPE svg PUBLIC "-//W3C//DTD SVG 20010904//EN"
 "http://www.w3.org/TR/2001/REC-SVG-20010904/DTD/svg10.dtd">
<svg version="1.0" xmlns="http://www.w3.org/2000/svg"
 width="500.000000pt" height="500.000000pt" viewBox="0 0 500.000000 500.000000"
 preserveAspectRatio="xMidYMid meet">

<g transform="translate(0.000000,500.000000) scale(0.100000,-0.100000)"
fill="#FFFFFF" stroke="none">
<path d="M2867 3409 c-8 -19 -60 -131 -115 -249 -55 -118 -167 -361 -250 -540
-83 -179 -225 -485 -315 -680 -91 -195 -163 -357 -161 -359 6 -6 -2 -23 179
369 93 201 285 617 427 924 142 307 256 561 254 564 -3 2 -11 -11 -19 -29z"/>
<path d="M1530 3362 c65 -32 65 -29 65 -517 0 -488 0 -485 -65 -517 -35 -18
-34 -18 115 -18 149 0 150 0 115 18 -61 30 -65 48 -65 320 l0 244 24 19 c34
28 64 24 165 -23 138 -64 236 -64 286 0 11 13 20 33 20 44 0 17 -3 16 -23 -8
-32 -37 -85 -35 -211 5 -116 37 -158 39 -220 7 l-48 -24 4 186 c4 214 15 255
72 271 22 7 -11 9 -119 10 -149 1 -150 1 -115 -17z"/>
<path d="M2158 3365 c62 -27 65 -45 71 -465 l6 -375 42 95 43 95 2 290 c3 325
7 346 71 364 23 7 -8 9 -118 10 -138 0 -147 -1 -117 -14z"/>
<path d="M2690 2521 c0 -5 -3 -16 -6 -24 -5 -14 0 -14 42 -1 26 8 79 17 116
21 l69 6 -3 -489 c-3 -454 -4 -492 -21 -518 -10 -15 -33 -34 -50 -41 -29 -13
-19 -14 113 -14 129 0 142 1 115 13 -60 26 -60 24 -63 560 l-3 489 69 -6 c135
-13 234 -58 255 -117 3 -8 6 18 6 58 l1 72 -320 0 c-188 0 -320 -4 -320 -9z"/>
</g>
</svg>
